# Blender 4.3.0
# www.blender.org
mtllib Arm.mtl
o RightArm
v 0.326416 0.350000 -0.069823
v 0.326416 0.350000 0.069823
v 0.206367 0.350000 -0.069823
v 0.206367 0.350000 0.069823
v 0.326416 0.009841 -0.069823
v 0.326416 0.009841 0.069823
v 0.326416 0.009841 -0.069823
v 0.326416 0.009841 0.069823
v 0.206367 0.009841 0.069823
v 0.206367 0.009841 -0.069823
vn 1.0000 -0.0000 -0.0000
vn -0.0000 -0.0000 1.0000
vn -0.0000 -0.0000 -1.0000
vn -0.0000 1.0000 -0.0000
vn -1.0000 -0.0000 -0.0000
vt 0.625000 0.000000
vt 0.500000 0.250000
vt 0.500000 0.000000
vt 0.500000 0.500000
vt 0.875000 0.500000
vt 0.625000 0.500000
vt 0.500000 1.000000
vt 0.625000 0.750000
vt 0.875000 0.750000
vt 0.500000 0.750000
vt 0.625000 0.250000
s 0
usemtl Shirt.001
f 1/1/1 6/2/1 5/3/1
f 9/4/2 2/5/2 4/6/2
f 7/7/3 3/8/3 1/9/3
f 2/5/4 3/8/4 4/6/4
f 10/10/5 4/6/5 3/8/5
f 1/1/1 2/11/1 6/2/1
f 9/4/2 8/2/2 2/5/2
f 7/7/3 10/10/3 3/8/3
f 2/5/4 1/9/4 3/8/4
f 10/10/5 9/4/5 4/6/5
o RightHand
v 0.326416 -0.150000 -0.069823
v 0.326416 -0.150000 0.069823
v 0.206367 -0.150000 -0.069823
v 0.206367 -0.150000 0.069823
v 0.326416 0.009841 -0.069823
v 0.326416 0.009841 0.069823
v 0.206367 0.009841 0.069823
v 0.206367 0.009841 -0.069823
vn -1.0000 -0.0000 -0.0000
vn -0.0000 -1.0000 -0.0000
vn -0.0000 -0.0000 -1.0000
vn -0.0000 -0.0000 1.0000
vn 1.0000 -0.0000 -0.0000
vt 0.500000 0.750000
vt 0.375000 0.500000
vt 0.500000 0.500000
vt 0.125000 0.500000
vt 0.375000 0.750000
vt 0.125000 0.750000
vt 0.375000 1.000000
vt 0.500000 0.250000
vt 0.375000 0.250000
vt 0.500000 0.000000
vt 0.375000 0.000000
vt 0.500000 1.000000
s 0
usemtl skin
f 18/12/6 14/13/6 17/14/6
f 12/15/7 13/16/7 11/17/7
f 18/12/8 11/18/8 13/16/8
f 16/19/9 14/13/9 12/20/9
f 15/21/10 12/20/10 11/22/10
f 18/12/6 13/16/6 14/13/6
f 12/15/7 14/13/7 13/16/7
f 18/12/8 15/23/8 11/18/8
f 16/19/9 17/14/9 14/13/9
f 15/21/10 16/19/10 12/20/10
