# Blender 4.3.0
# www.blender.org
mtllib Human.mtl
o Body.001
v -0.211563 0.350000 0.139817
v -0.211563 0.350000 -0.139817
v 0.210531 0.350000 0.139817
v 0.210531 0.350000 -0.139817
v -0.211563 -0.176011 0.139817
v -0.211563 -0.176011 -0.139817
v 0.210531 -0.176011 -0.139817
v 0.210531 -0.176011 0.139817
vn -1.0000 -0.0000 -0.0000
vn -0.0000 -0.0000 -1.0000
vn 1.0000 -0.0000 -0.0000
vn -0.0000 -0.0000 1.0000
vn -0.0000 1.0000 -0.0000
vt 0.625000 0.000000
vt 0.500000 0.250000
vt 0.500000 0.000000
vt 0.625000 0.250000
vt 0.500000 0.500000
vt 0.625000 0.500000
vt 0.500000 0.750000
vt 0.625000 0.750000
vt 0.500000 1.000000
vt 0.875000 0.500000
vt 0.625000 1.000000
vt 0.875000 0.750000
s 0
usemtl Shirt
f 1/1/1 6/2/1 5/3/1
f 2/4/2 7/5/2 6/2/2
f 4/6/3 8/7/3 7/5/3
f 3/8/4 5/9/4 8/7/4
f 2/10/5 3/8/5 4/6/5
f 1/1/1 2/4/1 6/2/1
f 2/4/2 4/6/2 7/5/2
f 4/6/3 3/8/3 8/7/3
f 3/8/4 1/11/4 5/9/4
f 2/10/5 1/12/5 3/8/5
o Head
v -0.190000 0.414748 0.150000
v -0.190000 0.694748 0.150000
v -0.190000 0.414748 -0.150000
v -0.190000 0.694748 -0.150000
v 0.190000 0.414748 0.150000
v 0.190000 0.694748 0.150000
v 0.190000 0.414748 -0.150000
v 0.190000 0.694748 -0.150000
v -0.190000 0.622678 0.150000
v 0.190000 0.622678 0.150000
v -0.230666 0.694748 0.150000
v -0.230666 0.694748 -0.150000
v 0.227143 0.694748 -0.150000
v 0.227143 0.694748 0.150000
v 0.190000 0.383253 0.150000
v 0.190000 0.383253 -0.150000
v 0.227143 0.383253 0.150000
v 0.227143 0.383253 -0.150000
v -0.190000 0.386058 -0.150000
v -0.190000 0.386058 0.150000
v -0.230666 0.386058 -0.150000
v -0.230666 0.386058 0.150000
vn -0.0000 -0.0000 1.0000
vn -1.0000 -0.0000 -0.0000
vn -0.0000 -0.0000 -1.0000
vn -0.0000 -1.0000 -0.0000
vn -0.0000 1.0000 -0.0000
vn 1.0000 -0.0000 -0.0000
vt 0.625000 0.750000
vt 0.500000 1.000000
vt 0.500000 0.750000
vt 0.625000 0.250000
vt 0.375000 0.000000
vt 0.625000 0.000000
vt 0.375000 0.500000
vt 0.625000 0.500000
vt 0.375000 0.750000
vt 0.375000 0.250000
vt 0.875000 0.750000
vt 0.125000 0.750000
vt 0.125000 0.500000
vt 0.375000 1.000000
vt 0.625000 1.000000
vt 0.000000 0.000000
vt 0.875000 0.500000
s 0
usemtl hair
f 14/13/6 17/14/6 18/15/6
f 20/16/7 30/17/7 19/18/7
f 15/19/8 21/20/8 24/19/8
f 15/19/7 23/21/7 13/21/7
f 11/22/8 29/22/8 12/16/8
f 24/19/9 25/21/9 23/21/9
f 16/20/10 10/23/10 14/13/10
f 28/24/9 29/25/9 27/25/9
f 18/15/6 25/21/6 14/13/6
f 9/24/11 27/25/11 11/25/11
f 21/20/11 25/21/11 26/19/11
f 9/26/6 19/27/6 28/26/6
f 11/22/8 15/28/8 27/28/8
f 14/13/6 10/27/6 17/14/6
f 20/16/7 29/22/7 30/17/7
f 15/19/8 16/20/8 21/20/8
f 21/20/8 26/19/8 24/19/8
f 15/19/7 24/19/7 23/21/7
f 11/22/8 27/22/8 29/22/8
f 29/22/8 20/16/8 12/16/8
f 24/19/9 26/19/9 25/21/9
f 12/29/10 20/29/10 19/23/10
f 12/29/10 19/23/10 10/23/10
f 22/13/10 21/20/10 16/20/10
f 16/20/10 12/29/10 10/23/10
f 14/13/10 22/13/10 16/20/10
f 28/24/9 30/24/9 29/25/9
f 13/21/6 23/21/6 25/21/6
f 25/21/6 22/13/6 14/13/6
f 18/15/6 13/21/6 25/21/6
f 9/24/11 28/24/11 27/25/11
f 21/20/11 22/13/11 25/21/11
f 17/14/6 10/27/6 19/27/6
f 19/27/6 30/26/6 28/26/6
f 9/26/6 17/14/6 19/27/6
f 11/22/8 12/16/8 16/20/8
f 15/28/8 24/28/8 27/28/8
f 11/22/8 16/20/8 15/28/8
o Left_Leg
v -0.186707 -0.850000 0.083027
v -0.186707 -0.350000 0.083027
v -0.186707 -0.850000 -0.083027
v -0.186707 -0.350000 -0.083027
v -0.067582 -0.850000 0.083027
v -0.067582 -0.350000 0.083027
v -0.067582 -0.850000 -0.083027
v -0.067582 -0.350000 -0.083027
vn -1.0000 -0.0000 -0.0000
vn -0.0000 -0.0000 -1.0000
vn 1.0000 -0.0000 -0.0000
vn -0.0000 -0.0000 1.0000
vn -0.0000 -1.0000 -0.0000
vn -0.0000 1.0000 -0.0000
vt 0.625000 0.000000
vt 0.375000 0.250000
vt 0.375000 0.000000
vt 0.625000 0.250000
vt 0.375000 0.500000
vt 0.625000 0.500000
vt 0.375000 0.750000
vt 0.625000 0.750000
vt 0.375000 1.000000
vt 0.125000 0.750000
vt 0.125000 0.500000
vt 0.875000 0.500000
vt 0.625000 1.000000
vt 0.875000 0.750000
s 0
usemtl Pants
f 32/30/12 33/31/12 31/32/12
f 34/33/13 37/34/13 33/31/13
f 38/35/14 35/36/14 37/34/14
f 36/37/15 31/38/15 35/36/15
f 37/34/16 31/39/16 33/40/16
f 34/41/17 36/37/17 38/35/17
f 32/30/12 34/33/12 33/31/12
f 34/33/13 38/35/13 37/34/13
f 38/35/14 36/37/14 35/36/14
f 36/37/15 32/42/15 31/38/15
f 37/34/16 35/36/16 31/39/16
f 34/41/17 32/43/17 36/37/17
o Left_Leg.001
v 0.039100 -0.850000 0.083027
v 0.039100 -0.350000 0.083027
v 0.039100 -0.850000 -0.083027
v 0.039100 -0.350000 -0.083027
v 0.158226 -0.850000 0.083027
v 0.158226 -0.350000 0.083027
v 0.158226 -0.850000 -0.083027
v 0.158226 -0.350000 -0.083027
vn -1.0000 -0.0000 -0.0000
vn -0.0000 -0.0000 -1.0000
vn 1.0000 -0.0000 -0.0000
vn -0.0000 -0.0000 1.0000
vn -0.0000 -1.0000 -0.0000
vn -0.0000 1.0000 -0.0000
vt 0.625000 0.000000
vt 0.375000 0.250000
vt 0.375000 0.000000
vt 0.625000 0.250000
vt 0.375000 0.500000
vt 0.625000 0.500000
vt 0.375000 0.750000
vt 0.625000 0.750000
vt 0.375000 1.000000
vt 0.125000 0.750000
vt 0.125000 0.500000
vt 0.875000 0.500000
vt 0.625000 1.000000
vt 0.875000 0.750000
s 0
usemtl Pants
f 40/44/18 41/45/18 39/46/18
f 42/47/19 45/48/19 41/45/19
f 46/49/20 43/50/20 45/48/20
f 44/51/21 39/52/21 43/50/21
f 45/48/22 39/53/22 41/54/22
f 42/55/23 44/51/23 46/49/23
f 40/44/18 42/47/18 41/45/18
f 42/47/19 46/49/19 45/48/19
f 46/49/20 44/51/20 43/50/20
f 44/51/21 40/56/21 39/52/21
f 45/48/22 43/50/22 39/53/22
f 42/55/23 40/57/23 44/51/23
o Neck
v -0.067471 0.340370 0.074141
v -0.067471 0.435355 0.074141
v -0.067471 0.340370 -0.074141
v -0.067471 0.435355 -0.074141
v 0.067471 0.340370 0.074141
v 0.067471 0.435355 0.074141
v 0.067471 0.340370 -0.074141
v 0.067471 0.435355 -0.074141
vn -1.0000 -0.0000 -0.0000
vn -0.0000 -0.0000 -1.0000
vn 1.0000 -0.0000 -0.0000
vn -0.0000 -0.0000 1.0000
vn -0.0000 -1.0000 -0.0000
vn -0.0000 1.0000 -0.0000
vt 0.625000 0.000000
vt 0.375000 0.250000
vt 0.375000 0.000000
vt 0.625000 0.250000
vt 0.375000 0.500000
vt 0.625000 0.500000
vt 0.375000 0.750000
vt 0.625000 0.750000
vt 0.375000 1.000000
vt 0.125000 0.750000
vt 0.125000 0.500000
vt 0.875000 0.500000
vt 0.625000 1.000000
vt 0.875000 0.750000
s 0
usemtl skin
f 48/58/24 49/59/24 47/60/24
f 50/61/25 53/62/25 49/59/25
f 54/63/26 51/64/26 53/62/26
f 52/65/27 47/66/27 51/64/27
f 53/62/28 47/67/28 49/68/28
f 50/69/29 52/65/29 54/63/29
f 48/58/24 50/61/24 49/59/24
f 50/61/25 54/63/25 53/62/25
f 54/63/26 52/65/26 51/64/26
f 52/65/27 48/70/27 47/66/27
f 53/62/28 51/64/28 47/67/28
f 50/69/29 48/71/29 52/65/29
o Pants
v -0.211563 -0.350000 0.139817
v -0.211563 -0.350000 -0.139817
v 0.210531 -0.350000 0.139817
v 0.210531 -0.350000 -0.139817
v -0.211563 -0.176011 0.139817
v -0.211563 -0.176011 -0.139817
v 0.210531 -0.176011 -0.139817
v 0.210531 -0.176011 0.139817
vn -0.0000 -1.0000 -0.0000
vn -0.0000 -0.0000 1.0000
vn 1.0000 -0.0000 -0.0000
vn -0.0000 -0.0000 -1.0000
vn -1.0000 -0.0000 -0.0000
vt 0.375000 0.500000
vt 0.125000 0.750000
vt 0.125000 0.500000
vt 0.500000 0.750000
vt 0.375000 1.000000
vt 0.375000 0.750000
vt 0.500000 0.500000
vt 0.500000 0.250000
vt 0.375000 0.250000
vt 0.500000 0.000000
vt 0.375000 0.000000
vt 0.500000 1.000000
s 0
usemtl Pants
f 58/72/30 55/73/30 56/74/30
f 62/75/31 55/76/31 57/77/31
f 61/78/32 57/77/32 58/72/32
f 60/79/33 58/72/33 56/80/33
f 59/81/34 56/80/34 55/82/34
f 58/72/30 57/77/30 55/73/30
f 62/75/31 59/83/31 55/76/31
f 61/78/32 62/75/32 57/77/32
f 60/79/33 61/78/33 58/72/33
f 59/81/34 60/79/34 56/80/34
o Face
v -0.190000 0.414748 0.123504
v -0.190000 0.414748 -0.150000
v 0.190000 0.414748 0.123504
v 0.190000 0.414748 -0.150000
v -0.190000 0.622678 0.123504
v 0.190000 0.622678 0.123504
vn -0.0000 -1.0000 -0.0000
vn -0.0000 -0.0000 1.0000
vt 0.375000 0.500000
vt 0.125000 0.750000
vt 0.125000 0.500000
vt 0.500000 0.750000
vt 0.375000 1.000000
vt 0.375000 0.750000
vt 0.500000 1.000000
s 0
usemtl skin
f 66/84/35 63/85/35 64/86/35
f 68/87/36 63/88/36 65/89/36
f 66/84/35 65/89/35 63/85/35
f 68/87/36 67/90/36 63/88/36
o LeftArm
v -0.200359 0.350000 -0.069823
v -0.200359 0.350000 0.069823
v -0.320408 0.350000 -0.069823
v -0.320408 0.350000 0.069823
v -0.200359 0.009841 -0.069823
v -0.200359 0.009841 0.069823
v -0.200359 0.009841 -0.069823
v -0.200359 0.009841 0.069823
v -0.320408 0.009841 0.069823
v -0.320408 0.009841 -0.069823
vn 1.0000 -0.0000 -0.0000
vn -0.0000 -0.0000 1.0000
vn -0.0000 -0.0000 -1.0000
vn -0.0000 1.0000 -0.0000
vn -1.0000 -0.0000 -0.0000
vt 0.625000 0.000000
vt 0.500000 0.250000
vt 0.500000 0.000000
vt 0.500000 0.500000
vt 0.875000 0.500000
vt 0.625000 0.500000
vt 0.500000 1.000000
vt 0.625000 0.750000
vt 0.875000 0.750000
vt 0.500000 0.750000
vt 0.625000 0.250000
s 0
usemtl Shirt.001
f 69/91/37 74/92/37 73/93/37
f 77/94/38 70/95/38 72/96/38
f 75/97/39 71/98/39 69/99/39
f 70/95/40 71/98/40 72/96/40
f 78/100/41 72/96/41 71/98/41
f 69/91/37 70/101/37 74/92/37
f 77/94/38 76/92/38 70/95/38
f 75/97/39 78/100/39 71/98/39
f 70/95/40 69/99/40 71/98/40
f 78/100/41 77/94/41 72/96/41
o LeftHand.001
v -0.200359 -0.150000 -0.069823
v -0.200359 -0.150000 0.069823
v -0.320408 -0.150000 -0.069823
v -0.320408 -0.150000 0.069823
v -0.200359 0.009841 -0.069823
v -0.200359 0.009841 0.069823
v -0.320408 0.009841 0.069823
v -0.320408 0.009841 -0.069823
vn -1.0000 -0.0000 -0.0000
vn -0.0000 -1.0000 -0.0000
vn -0.0000 -0.0000 -1.0000
vn -0.0000 -0.0000 1.0000
vn 1.0000 -0.0000 -0.0000
vt 0.500000 0.750000
vt 0.375000 0.500000
vt 0.500000 0.500000
vt 0.125000 0.500000
vt 0.375000 0.750000
vt 0.125000 0.750000
vt 0.375000 1.000000
vt 0.500000 0.250000
vt 0.375000 0.250000
vt 0.500000 0.000000
vt 0.375000 0.000000
vt 0.500000 1.000000
s 0
usemtl skin
f 86/102/42 82/103/42 85/104/42
f 80/105/43 81/106/43 79/107/43
f 86/102/44 79/108/44 81/106/44
f 84/109/45 82/103/45 80/110/45
f 83/111/46 80/110/46 79/112/46
f 86/102/42 81/106/42 82/103/42
f 80/105/43 82/103/43 81/106/43
f 86/102/44 83/113/44 79/108/44
f 84/109/45 85/104/45 82/103/45
f 83/111/46 84/109/46 80/110/46
o Cube.002
v 0.038821 0.498237 0.126626
v 0.038821 0.565582 0.126626
v 0.038821 0.498237 0.113611
v 0.038821 0.565582 0.113611
v 0.082406 0.498237 0.126626
v 0.082406 0.565582 0.126626
v 0.082406 0.498237 0.113611
v 0.082406 0.565582 0.113611
vn -1.0000 -0.0000 -0.0000
vn -0.0000 -0.0000 -1.0000
vn 1.0000 -0.0000 -0.0000
vn -0.0000 -0.0000 1.0000
vn -0.0000 -1.0000 -0.0000
vn -0.0000 1.0000 -0.0000
vt 0.625000 0.000000
vt 0.375000 0.250000
vt 0.375000 0.000000
vt 0.625000 0.250000
vt 0.375000 0.500000
vt 0.625000 0.500000
vt 0.375000 0.750000
vt 0.625000 0.750000
vt 0.375000 1.000000
vt 0.125000 0.750000
vt 0.125000 0.500000
vt 0.875000 0.500000
vt 0.625000 1.000000
vt 0.875000 0.750000
s 0
usemtl Eyes
f 88/114/47 89/115/47 87/116/47
f 90/117/48 93/118/48 89/115/48
f 94/119/49 91/120/49 93/118/49
f 92/121/50 87/122/50 91/120/50
f 93/118/51 87/123/51 89/124/51
f 90/125/52 92/121/52 94/119/52
f 88/114/47 90/117/47 89/115/47
f 90/117/48 94/119/48 93/118/48
f 94/119/49 92/121/49 91/120/49
f 92/121/50 88/126/50 87/122/50
f 93/118/51 91/120/51 87/123/51
f 90/125/52 88/127/52 92/121/52
o Cube.003
v 0.061274 0.535469 0.127852
v 0.061274 0.558739 0.127852
v 0.061274 0.535469 0.123930
v 0.061274 0.558739 0.123930
v 0.074411 0.535469 0.127852
v 0.074411 0.558739 0.127852
v 0.074411 0.535469 0.123930
v 0.074411 0.558739 0.123930
vn -1.0000 -0.0000 -0.0000
vn -0.0000 -0.0000 -1.0000
vn 1.0000 -0.0000 -0.0000
vn -0.0000 -0.0000 1.0000
vn -0.0000 -1.0000 -0.0000
vn -0.0000 1.0000 -0.0000
vt 0.625000 0.000000
vt 0.375000 0.250000
vt 0.375000 0.000000
vt 0.625000 0.250000
vt 0.375000 0.500000
vt 0.625000 0.500000
vt 0.375000 0.750000
vt 0.625000 0.750000
vt 0.375000 1.000000
vt 0.125000 0.750000
vt 0.125000 0.500000
vt 0.875000 0.500000
vt 0.625000 1.000000
vt 0.875000 0.750000
s 0
usemtl Material.002
f 96/128/53 97/129/53 95/130/53
f 98/131/54 101/132/54 97/129/54
f 102/133/55 99/134/55 101/132/55
f 100/135/56 95/136/56 99/134/56
f 101/132/57 95/137/57 97/138/57
f 98/139/58 100/135/58 102/133/58
f 96/128/53 98/131/53 97/129/53
f 98/131/54 102/133/54 101/132/54
f 102/133/55 100/135/55 99/134/55
f 100/135/56 96/140/56 95/136/56
f 101/132/57 99/134/57 95/137/57
f 98/139/58 96/141/58 100/135/58
o Cube.004
v -0.065680 0.443819 0.127663
v -0.065680 0.464837 0.127663
v -0.065680 0.443819 0.124120
v -0.065680 0.464837 0.124120
v 0.037300 0.443819 0.127663
v 0.037300 0.464837 0.127663
v 0.037300 0.443819 0.124120
v 0.037300 0.464837 0.124120
v 0.002973 0.437030 0.124120
v -0.031353 0.437030 0.124120
v -0.031353 0.458048 0.124120
v 0.002973 0.458048 0.124120
v -0.031353 0.437030 0.127663
v 0.002973 0.437030 0.127663
v 0.002973 0.458048 0.127663
v -0.031353 0.458048 0.127663
vn -1.0000 -0.0000 -0.0000
vn -0.0000 -0.0000 -1.0000
vn 1.0000 -0.0000 -0.0000
vn -0.0000 -0.0000 1.0000
vn 0.1940 -0.9810 -0.0000
vn 0.1940 0.9810 -0.0000
vn -0.1940 0.9810 -0.0000
vn -0.0000 1.0000 -0.0000
vn -0.1940 -0.9810 -0.0000
vn -0.0000 -1.0000 -0.0000
vt 0.625000 0.000000
vt 0.375000 0.250000
vt 0.375000 0.000000
vt 0.625000 0.416667
vt 0.375000 0.500000
vt 0.375000 0.416667
vt 0.625000 0.500000
vt 0.375000 0.750000
vt 0.625000 0.916667
vt 0.375000 1.000000
vt 0.375000 0.916667
vt 0.291667 0.750000
vt 0.291667 0.500000
vt 0.875000 0.500000
vt 0.791667 0.750000
vt 0.791667 0.500000
vt 0.708333 0.500000
vt 0.625000 0.750000
vt 0.708333 0.750000
vt 0.208333 0.500000
vt 0.125000 0.750000
vt 0.125000 0.500000
vt 0.208333 0.750000
vt 0.625000 0.833333
vt 0.375000 0.833333
vt 0.625000 0.333333
vt 0.375000 0.333333
vt 0.625000 0.250000
vt 0.625000 1.000000
vt 0.875000 0.750000
s 0
usemtl Eyes
f 104/142/59 105/143/59 103/144/59
f 114/145/60 109/146/60 111/147/60
f 110/148/61 107/149/61 109/146/61
f 118/150/62 103/151/62 115/152/62
f 109/146/63 116/153/63 111/154/63
f 106/155/64 118/156/64 113/157/64
f 114/158/65 108/159/65 110/148/65
f 113/157/66 117/160/66 114/158/66
f 112/161/67 103/162/67 105/163/67
f 111/154/68 115/164/68 112/161/68
f 107/149/62 117/165/62 116/166/62
f 117/165/62 115/152/62 116/166/62
f 105/143/60 113/167/60 112/168/60
f 113/167/60 111/147/60 112/168/60
f 104/142/59 106/169/59 105/143/59
f 114/145/60 110/148/60 109/146/60
f 110/148/61 108/159/61 107/149/61
f 118/150/62 104/170/62 103/151/62
f 109/146/63 107/149/63 116/153/63
f 106/155/64 104/171/64 118/156/64
f 114/158/65 117/160/65 108/159/65
f 113/157/66 118/156/66 117/160/66
f 112/161/67 115/164/67 103/162/67
f 111/154/68 116/153/68 115/164/68
f 107/149/62 108/159/62 117/165/62
f 117/165/62 118/150/62 115/152/62
f 105/143/60 106/169/60 113/167/60
f 113/167/60 114/145/60 111/147/60
o Cube.001
v -0.098117 0.498237 0.126626
v -0.098117 0.565582 0.126626
v -0.098117 0.498237 0.113611
v -0.098117 0.565582 0.113611
v -0.054532 0.498237 0.126626
v -0.054532 0.565582 0.126626
v -0.054532 0.498237 0.113611
v -0.054532 0.565582 0.113611
vn -1.0000 -0.0000 -0.0000
vn -0.0000 -0.0000 -1.0000
vn 1.0000 -0.0000 -0.0000
vn -0.0000 -0.0000 1.0000
vn -0.0000 -1.0000 -0.0000
vn -0.0000 1.0000 -0.0000
vt 0.625000 0.000000
vt 0.375000 0.250000
vt 0.375000 0.000000
vt 0.625000 0.250000
vt 0.375000 0.500000
vt 0.625000 0.500000
vt 0.375000 0.750000
vt 0.625000 0.750000
vt 0.375000 1.000000
vt 0.125000 0.750000
vt 0.125000 0.500000
vt 0.875000 0.500000
vt 0.625000 1.000000
vt 0.875000 0.750000
s 0
usemtl Eyes
f 120/172/69 121/173/69 119/174/69
f 122/175/70 125/176/70 121/173/70
f 126/177/71 123/178/71 125/176/71
f 124/179/72 119/180/72 123/178/72
f 125/176/73 119/181/73 121/182/73
f 122/183/74 124/179/74 126/177/74
f 120/172/69 122/175/69 121/173/69
f 122/175/70 126/177/70 125/176/70
f 126/177/71 124/179/71 123/178/71
f 124/179/72 120/184/72 119/180/72
f 125/176/73 123/178/73 119/181/73
f 122/183/74 120/185/74 124/179/74
o Cube.005
v -0.075664 0.535469 0.127852
v -0.075664 0.558739 0.127852
v -0.075664 0.535469 0.123930
v -0.075664 0.558739 0.123930
v -0.062527 0.535469 0.127852
v -0.062527 0.558739 0.127852
v -0.062527 0.535469 0.123930
v -0.062527 0.558739 0.123930
vn -1.0000 -0.0000 -0.0000
vn -0.0000 -0.0000 -1.0000
vn 1.0000 -0.0000 -0.0000
vn -0.0000 -0.0000 1.0000
vn -0.0000 -1.0000 -0.0000
vn -0.0000 1.0000 -0.0000
vt 0.625000 0.000000
vt 0.375000 0.250000
vt 0.375000 0.000000
vt 0.625000 0.250000
vt 0.375000 0.500000
vt 0.625000 0.500000
vt 0.375000 0.750000
vt 0.625000 0.750000
vt 0.375000 1.000000
vt 0.125000 0.750000
vt 0.125000 0.500000
vt 0.875000 0.500000
vt 0.625000 1.000000
vt 0.875000 0.750000
s 0
usemtl Material.002
f 128/186/75 129/187/75 127/188/75
f 130/189/76 133/190/76 129/187/76
f 134/191/77 131/192/77 133/190/77
f 132/193/78 127/194/78 131/192/78
f 133/190/79 127/195/79 129/196/79
f 130/197/80 132/193/80 134/191/80
f 128/186/75 130/189/75 129/187/75
f 130/189/76 134/191/76 133/190/76
f 134/191/77 132/193/77 131/192/77
f 132/193/78 128/198/78 127/194/78
f 133/190/79 131/192/79 127/195/79
f 130/197/80 128/199/80 132/193/80
